<svg width="23" height="23" viewBox="0 0 23 23" fill="none" xmlns="http://www.w3.org/2000/svg">
<g clip-path="url(#clip0_308_539)">
<path d="M0 7.5V6.5625C0 3.97781 2.10281 1.875 4.6875 1.875H5.625V0.9375C5.625 0.42 6.04406 0 6.5625 0C7.08094 0 7.5 0.42 7.5 0.9375V1.875H15V0.9375C15 0.42 15.4191 0 15.9375 0C16.4559 0 16.875 0.42 16.875 0.9375V1.875H17.8125C20.3972 1.875 22.5 3.97781 22.5 6.5625V7.5H0ZM22.5 9.375V17.8125C22.5 20.3972 20.3972 22.5 17.8125 22.5H4.6875C2.10281 22.5 0 20.3972 0 17.8125V9.375H22.5ZM11.25 17.8125C11.25 17.295 10.8309 16.875 10.3125 16.875H5.625C5.10656 16.875 4.6875 17.295 4.6875 17.8125C4.6875 18.33 5.10656 18.75 5.625 18.75H10.3125C10.8309 18.75 11.25 18.33 11.25 17.8125ZM17.8125 14.0625C17.8125 13.545 17.3934 13.125 16.875 13.125H5.625C5.10656 13.125 4.6875 13.545 4.6875 14.0625C4.6875 14.58 5.10656 15 5.625 15H16.875C17.3934 15 17.8125 14.58 17.8125 14.0625Z" fill="url(#paint0_linear_308_539)"/>
</g>
<defs>
<linearGradient id="paint0_linear_308_539" x1="11.25" y1="0" x2="11.25" y2="22.5" gradientUnits="userSpaceOnUse">
<stop offset="0.0729167" stop-color="#8561D5"/>
<stop offset="1" stop-color="#B871F0" stop-opacity="0.9"/>
</linearGradient>
<clipPath id="clip0_308_539">
<rect width="22.5" height="22.5" fill="white"/>
</clipPath>
</defs>
</svg>
