<svg width="15" height="15" viewBox="0 0 15 15" fill="none" xmlns="http://www.w3.org/2000/svg">
<path d="M8.18444 5.72109L5.7211 8.18443C5.66338 8.24168 5.61757 8.30979 5.5863 8.38483C5.55504 8.45988 5.53894 8.54037 5.53894 8.62167C5.53894 8.70297 5.55504 8.78346 5.5863 8.8585C5.61757 8.93355 5.66338 9.00166 5.7211 9.05891C5.77835 9.11663 5.84646 9.16245 5.92151 9.19371C5.99656 9.22498 6.07705 9.24107 6.15835 9.24107C6.23964 9.24107 6.32014 9.22498 6.39518 9.19371C6.47023 9.16245 6.53834 9.11663 6.59559 9.05891L9.05892 6.59557C9.17489 6.47961 9.24004 6.32233 9.24004 6.15833C9.24004 5.99433 9.17489 5.83705 9.05892 5.72109C8.94296 5.60513 8.78568 5.53998 8.62168 5.53998C8.45768 5.53998 8.3004 5.60513 8.18444 5.72109Z" fill="white"/>
<path d="M7.56244 10.7155L6.77417 11.4976C6.33165 11.9536 5.73676 12.2308 5.10297 12.2762C4.46919 12.3216 3.84085 12.1322 3.33782 11.744C3.07194 11.5249 2.85498 11.2525 2.70094 10.9443C2.54691 10.6362 2.45922 10.2991 2.44355 9.95496C2.42788 9.6108 2.48458 9.26719 2.60997 8.94631C2.73537 8.62543 2.92668 8.33442 3.17154 8.09208L4.04602 7.21143C4.10375 7.15418 4.14956 7.08607 4.18083 7.01103C4.21209 6.93598 4.22819 6.85549 4.22819 6.77419C4.22819 6.69289 4.21209 6.6124 4.18083 6.53735C4.14956 6.46231 4.10375 6.3942 4.04602 6.33695C3.98878 6.27923 3.92066 6.23341 3.84562 6.20215C3.77057 6.17088 3.69008 6.15479 3.60878 6.15479C3.52749 6.15479 3.44699 6.17088 3.37195 6.20215C3.2969 6.23341 3.22879 6.27923 3.17154 6.33695L2.38943 7.12522C1.73059 7.76322 1.32563 8.61863 1.24975 9.53261C1.17387 10.4466 1.43221 11.3571 1.97682 12.095C2.30006 12.5143 2.70883 12.8601 3.17597 13.1093C3.64311 13.3585 4.15793 13.5055 4.68623 13.5404C5.21454 13.5754 5.74423 13.4975 6.24013 13.312C6.73603 13.1265 7.18678 12.8376 7.56244 12.4645L8.43692 11.59C8.55289 11.4741 8.61803 11.3168 8.61803 11.1528C8.61803 10.9888 8.55289 10.8315 8.43692 10.7155C8.32096 10.5996 8.16368 10.5344 7.99968 10.5344C7.83568 10.5344 7.6784 10.5996 7.56244 10.7155Z" fill="white"/>
<path d="M12.1073 1.98297C11.3643 1.4327 10.4463 1.17172 9.52497 1.24878C8.60361 1.32585 7.7418 1.73568 7.10053 2.40173L6.43543 3.07915C6.35941 3.13441 6.29584 3.20503 6.24884 3.28641C6.20184 3.3678 6.17245 3.45815 6.16259 3.55162C6.15272 3.64508 6.16258 3.73957 6.19155 3.82898C6.22052 3.91839 6.26793 4.00072 6.33074 4.07064C6.38799 4.12837 6.4561 4.17418 6.53114 4.20544C6.60619 4.23671 6.68668 4.25281 6.76798 4.25281C6.84927 4.25281 6.92977 4.23671 7.00481 4.20544C7.07986 4.17418 7.14797 4.12837 7.20522 4.07064L8.0058 3.2639C8.44588 2.80592 9.04006 2.52726 9.67358 2.48177C10.3071 2.43627 10.935 2.62716 11.436 3.01757C11.7039 3.23668 11.9225 3.50978 12.0778 3.81905C12.2331 4.12833 12.3214 4.46685 12.3371 4.81256C12.3528 5.15826 12.2955 5.50339 12.1688 5.82546C12.0422 6.14753 11.8492 6.43931 11.6023 6.68178L10.7278 7.56242C10.6701 7.61967 10.6243 7.68779 10.593 7.76283C10.5617 7.83788 10.5456 7.91837 10.5456 7.99967C10.5456 8.08096 10.5617 8.16146 10.593 8.2365C10.6243 8.31155 10.6701 8.37966 10.7278 8.43691C10.785 8.49463 10.8532 8.54044 10.9282 8.57171C11.0032 8.60297 11.0837 8.61907 11.165 8.61907C11.2463 8.61907 11.3268 8.60297 11.4019 8.57171C11.4769 8.54044 11.545 8.49463 11.6023 8.43691L12.4768 7.56242C12.8488 7.18683 13.1368 6.73647 13.3217 6.24118C13.5066 5.74588 13.5841 5.21696 13.5492 4.68944C13.5143 4.16192 13.3677 3.64784 13.1191 3.18125C12.8705 2.71466 12.5256 2.30622 12.1073 1.98297Z" fill="white"/>
</svg>
