<svg width="23" height="24" viewBox="0 0 23 24" fill="none" xmlns="http://www.w3.org/2000/svg">
<path d="M11.5 14.7116C9.91219 14.7116 8.625 15.9988 8.625 17.5866V23.3366H14.375V17.5866C14.375 15.9988 13.0878 14.7116 11.5 14.7116Z" fill="url(#paint0_linear_308_447)"/>
<path d="M16.2917 17.5865V23.3365H20.125C21.7128 23.3365 23 22.0493 23 20.4615V11.7206C23.0002 11.2227 22.8067 10.7443 22.4604 10.3866L14.3166 1.58233C12.8796 0.0275812 10.4544 -0.0678778 8.89961 1.36908C8.82576 1.43736 8.7546 1.50848 8.68636 1.58233L0.556807 10.3837C0.200037 10.7429 -0.000134698 11.2287 6.8004e-08 11.7349V20.4615C6.8004e-08 22.0493 1.28719 23.3365 2.875 23.3365H6.70832V17.5865C6.72624 14.9733 8.83609 12.8393 11.3835 12.7779C14.0161 12.7144 16.2716 14.8847 16.2917 17.5865Z" fill="url(#paint1_linear_308_447)"/>
<path d="M11.5 14.7116C9.91219 14.7116 8.625 15.9988 8.625 17.5866V23.3366H14.375V17.5866C14.375 15.9988 13.0878 14.7116 11.5 14.7116Z" fill="url(#paint2_linear_308_447)"/>
<defs>
<linearGradient id="paint0_linear_308_447" x1="11.5" y1="14.7116" x2="11.5" y2="23.3366" gradientUnits="userSpaceOnUse">
<stop offset="0.0729167" stop-color="#8561D5"/>
<stop offset="1" stop-color="#B871F0" stop-opacity="0.9"/>
</linearGradient>
<linearGradient id="paint1_linear_308_447" x1="11.5" y1="0.35083" x2="11.5" y2="23.3365" gradientUnits="userSpaceOnUse">
<stop offset="0.0729167" stop-color="#8561D5"/>
<stop offset="1" stop-color="#B871F0" stop-opacity="0.9"/>
</linearGradient>
<linearGradient id="paint2_linear_308_447" x1="11.5" y1="14.7116" x2="11.5" y2="23.3366" gradientUnits="userSpaceOnUse">
<stop offset="0.0729167" stop-color="#8561D5"/>
<stop offset="1" stop-color="#B871F0" stop-opacity="0.9"/>
</linearGradient>
</defs>
</svg>
