<svg width="24" height="23" viewBox="0 0 24 23" fill="none" xmlns="http://www.w3.org/2000/svg">
<path d="M12 11C15.0376 11 17.5 8.53757 17.5 5.5C17.5 2.46243 15.0376 0 12 0C8.96243 0 6.5 2.46243 6.5 5.5C6.5 8.53757 8.96243 11 12 11Z" fill="url(#paint0_linear_308_641)"/>
<path d="M12 12.8334C7.44574 12.8384 3.75507 16.5291 3.75 21.0834C3.75 21.5896 4.16039 22 4.66665 22H19.3333C19.8396 22 20.25 21.5896 20.25 21.0834C20.2449 16.5291 16.5543 12.8384 12 12.8334Z" fill="url(#paint1_linear_308_641)"/>
<defs>
<linearGradient id="paint0_linear_308_641" x1="12" y1="0" x2="12" y2="11" gradientUnits="userSpaceOnUse">
<stop stop-color="#552CCC"/>
<stop offset="1" stop-color="#8741DF"/>
</linearGradient>
<linearGradient id="paint1_linear_308_641" x1="12" y1="12.8334" x2="12" y2="22" gradientUnits="userSpaceOnUse">
<stop stop-color="#552CCC"/>
<stop offset="1" stop-color="#8741DF"/>
</linearGradient>
</defs>
</svg>
